<svg width="24" height="24" viewBox="0 0 24 24" fill="none" xmlns="http://www.w3.org/2000/svg">
<path d="M21.2565 17.8778C21.2565 18.2121 21.1822 18.5557 21.0243 18.8899C20.8665 19.2242 20.6622 19.5399 20.3929 19.8371C19.9379 20.3385 19.4365 20.7007 18.87 20.9328C18.3129 21.1649 17.7093 21.2857 17.0593 21.2857C16.1122 21.2857 15.1 21.0628 14.0322 20.6078C12.9643 20.1528 11.8965 19.5399 10.8379 18.7692C9.77003 17.9892 8.75789 17.1257 7.79218 16.1692C6.83575 15.2035 5.97218 14.1914 5.20146 13.1328C4.44003 12.0742 3.82718 11.0157 3.38146 9.96638C2.93575 8.9078 2.71289 7.89566 2.71289 6.92995C2.71289 6.29852 2.82432 5.69495 3.04718 5.1378C3.27003 4.57138 3.62289 4.05138 4.11503 3.58709C4.70932 3.00209 5.35932 2.71423 6.04646 2.71423C6.30646 2.71423 6.56646 2.76995 6.79861 2.88138C7.04003 2.9928 7.25361 3.15995 7.42075 3.40138L9.57503 6.4378C9.74218 6.66995 9.86289 6.88352 9.94646 7.0878C10.03 7.2828 10.0765 7.4778 10.0765 7.65423C10.0765 7.87709 10.0115 8.09995 9.88146 8.31352C9.76075 8.52709 9.58432 8.74995 9.36146 8.9728L8.65575 9.70638C8.5536 9.80852 8.50718 9.92923 8.50718 10.0778C8.50718 10.1521 8.51646 10.2171 8.53503 10.2914C8.56289 10.3657 8.59075 10.4214 8.60932 10.4771C8.77646 10.7835 9.06432 11.1828 9.47289 11.6657C9.89075 12.1485 10.3365 12.6407 10.8193 13.1328C11.3207 13.6249 11.8036 14.0799 12.2957 14.4978C12.7786 14.9064 13.1779 15.1849 13.4936 15.3521C13.54 15.3707 13.5957 15.3985 13.6607 15.4264C13.735 15.4542 13.8093 15.4635 13.8929 15.4635C14.0507 15.4635 14.1715 15.4078 14.2736 15.3057L14.9793 14.6092C15.2115 14.3771 15.4343 14.2007 15.6479 14.0892C15.8615 13.9592 16.075 13.8942 16.3072 13.8942C16.4836 13.8942 16.6693 13.9314 16.8736 14.0149C17.0779 14.0985 17.2915 14.2192 17.5236 14.3771L20.5972 16.5592C20.8386 16.7264 21.0057 16.9214 21.1079 17.1535C21.2007 17.3857 21.2565 17.6178 21.2565 17.8778Z" stroke="#5B7BBB" stroke-width="1.5" stroke-miterlimit="10"/>
</svg>
