<svg width="216" height="64" viewBox="0 0 216 64" fill="none" xmlns="http://www.w3.org/2000/svg">
<path d="M13.7334 5.33325V58.6666" stroke="white" stroke-width="1.5" stroke-miterlimit="10" stroke-linecap="round" stroke-linejoin="round"/>
<path d="M13.7334 10.6667H43.6001C50.8001 10.6667 52.4001 14.6667 47.3334 19.7334L44.1334 22.9334C42.0001 25.0667 42.0001 28.5334 44.1334 30.4001L47.3334 33.6001C52.4001 38.6667 50.5334 42.6667 43.6001 42.6667H13.7334" stroke="white" stroke-width="1.5" stroke-miterlimit="10" stroke-linecap="round" stroke-linejoin="round"/>
<path d="M110.454 6.02674L127.814 15.3867C129.84 16.4801 129.84 19.6001 127.814 20.6934L110.454 30.0534C108.907 30.8801 107.094 30.8801 105.547 30.0534L88.187 20.6934C86.1603 19.6001 86.1603 16.4801 88.187 15.3867L105.547 6.02674C107.094 5.20007 108.907 5.20007 110.454 6.02674Z" stroke="white" stroke-width="1.5" stroke-linecap="round" stroke-linejoin="round"/>
<path d="M85.6263 27.0134L101.76 35.0934C103.76 36.1067 105.04 38.16 105.04 40.4V55.6534C105.04 57.8667 102.72 59.2801 100.746 58.2934L84.613 50.2134C82.613 49.2 81.333 47.1467 81.333 44.9067V29.6534C81.333 27.4401 83.653 26.0267 85.6263 27.0134Z" stroke="white" stroke-width="1.5" stroke-linecap="round" stroke-linejoin="round"/>
<path d="M130.373 27.0134L114.24 35.0934C112.24 36.1067 110.96 38.16 110.96 40.4V55.6534C110.96 57.8667 113.28 59.2801 115.253 58.2934L131.387 50.2134C133.387 49.2 134.667 47.1467 134.667 44.9067V29.6534C134.667 27.4401 132.347 26.0267 130.373 27.0134Z" stroke="white" stroke-width="1.5" stroke-linecap="round" stroke-linejoin="round"/>
<path d="M181.333 52H208" stroke="white" stroke-width="1.5" stroke-linecap="round" stroke-linejoin="round"/>
<path d="M181.333 33.3333H208" stroke="white" stroke-width="1.5" stroke-linecap="round" stroke-linejoin="round"/>
<path d="M181.333 14.6667H208" stroke="white" stroke-width="1.5" stroke-linecap="round" stroke-linejoin="round"/>
<path d="M160 14.6666L162.667 17.3333L170.667 9.33325" stroke="white" stroke-width="1.5" stroke-linecap="round" stroke-linejoin="round"/>
<path d="M160 33.3333L162.667 36L170.667 28" stroke="white" stroke-width="1.5" stroke-linecap="round" stroke-linejoin="round"/>
<path d="M160 52.0001L162.667 54.6667L170.667 46.6667" stroke="white" stroke-width="1.5" stroke-linecap="round" stroke-linejoin="round"/>
</svg>
